<mxfile host="app.diagrams.net" modified="2023-09-03T09:31:23.131Z" agent="Mozilla/5.0 (Macintosh; Intel Mac OS X 10_15_7) AppleWebKit/537.36 (KHTML, like Gecko) Chrome/116.0.0.0 Safari/537.36" etag="Y5b9PGwJBs6rx19jKDAf" version="21.7.1" type="github">
  <diagram name="第 1 页" id="nMMz3eka9ZJgKuDj_qZi">
    <mxGraphModel dx="4558" dy="2129" grid="1" gridSize="10" guides="1" tooltips="1" connect="1" arrows="1" fold="1" page="1" pageScale="1" pageWidth="827" pageHeight="1169" math="0" shadow="0">
      <root>
        <mxCell id="0" />
        <mxCell id="1" parent="0" />
        <mxCell id="ZLK31tbMYoaBxiMOAiiz-157" style="rounded=0;orthogonalLoop=1;jettySize=auto;html=1;exitX=1;exitY=0.5;exitDx=0;exitDy=0;" edge="1" parent="1" source="ZLK31tbMYoaBxiMOAiiz-146">
          <mxGeometry relative="1" as="geometry">
            <mxPoint x="1290" y="1340" as="targetPoint" />
          </mxGeometry>
        </mxCell>
        <mxCell id="ZLK31tbMYoaBxiMOAiiz-146" value="" style="rounded=0;whiteSpace=wrap;html=1;" vertex="1" parent="1">
          <mxGeometry x="680" y="1280" width="460" height="250" as="geometry" />
        </mxCell>
        <mxCell id="ZLK31tbMYoaBxiMOAiiz-156" style="rounded=0;orthogonalLoop=1;jettySize=auto;html=1;exitX=1;exitY=0.5;exitDx=0;exitDy=0;entryX=0;entryY=0.5;entryDx=0;entryDy=0;strokeColor=default;" edge="1" parent="1" source="ZLK31tbMYoaBxiMOAiiz-145" target="ZLK31tbMYoaBxiMOAiiz-155">
          <mxGeometry relative="1" as="geometry" />
        </mxCell>
        <mxCell id="ZLK31tbMYoaBxiMOAiiz-145" value="" style="rounded=0;whiteSpace=wrap;html=1;" vertex="1" parent="1">
          <mxGeometry x="680" y="1040" width="460" height="240" as="geometry" />
        </mxCell>
        <mxCell id="ZLK31tbMYoaBxiMOAiiz-144" value="" style="rounded=0;whiteSpace=wrap;html=1;" vertex="1" parent="1">
          <mxGeometry x="680" y="760" width="460" height="280" as="geometry" />
        </mxCell>
        <mxCell id="ZLK31tbMYoaBxiMOAiiz-154" style="rounded=0;orthogonalLoop=1;jettySize=auto;html=1;exitX=1;exitY=0.5;exitDx=0;exitDy=0;entryX=0.5;entryY=0;entryDx=0;entryDy=0;" edge="1" parent="1" source="ZLK31tbMYoaBxiMOAiiz-140" target="ZLK31tbMYoaBxiMOAiiz-153">
          <mxGeometry relative="1" as="geometry" />
        </mxCell>
        <mxCell id="ZLK31tbMYoaBxiMOAiiz-140" value="" style="rounded=0;whiteSpace=wrap;html=1;" vertex="1" parent="1">
          <mxGeometry x="120" y="1260" width="440" height="245" as="geometry" />
        </mxCell>
        <mxCell id="ZLK31tbMYoaBxiMOAiiz-139" value="" style="rounded=0;whiteSpace=wrap;html=1;" vertex="1" parent="1">
          <mxGeometry x="120" y="1020" width="440" height="240" as="geometry" />
        </mxCell>
        <mxCell id="ZLK31tbMYoaBxiMOAiiz-138" value="" style="rounded=0;whiteSpace=wrap;html=1;" vertex="1" parent="1">
          <mxGeometry x="120" y="760" width="440" height="260" as="geometry" />
        </mxCell>
        <mxCell id="ZLK31tbMYoaBxiMOAiiz-136" value="" style="rounded=0;whiteSpace=wrap;html=1;" vertex="1" parent="1">
          <mxGeometry x="-470" y="985.5" width="443" height="260" as="geometry" />
        </mxCell>
        <mxCell id="ZLK31tbMYoaBxiMOAiiz-59" value="0" style="rounded=0;whiteSpace=wrap;html=1;fillColor=#d5e8d4;strokeColor=#82b366;fontSize=20;" vertex="1" parent="1">
          <mxGeometry x="-390" y="1049" width="120" height="60" as="geometry" />
        </mxCell>
        <mxCell id="ZLK31tbMYoaBxiMOAiiz-60" value="0" style="rounded=0;whiteSpace=wrap;html=1;fillColor=#d5e8d4;strokeColor=#82b366;fontSize=20;" vertex="1" parent="1">
          <mxGeometry x="-170" y="1049" width="120" height="60" as="geometry" />
        </mxCell>
        <mxCell id="ZLK31tbMYoaBxiMOAiiz-61" value="0" style="rounded=0;whiteSpace=wrap;html=1;fillColor=#d5e8d4;strokeColor=#82b366;fontSize=20;" vertex="1" parent="1">
          <mxGeometry x="180" y="800" width="120" height="60" as="geometry" />
        </mxCell>
        <mxCell id="ZLK31tbMYoaBxiMOAiiz-62" value="1" style="rounded=0;whiteSpace=wrap;html=1;fontSize=20;" vertex="1" parent="1">
          <mxGeometry x="180" y="860" width="120" height="60" as="geometry" />
        </mxCell>
        <mxCell id="ZLK31tbMYoaBxiMOAiiz-63" value="2" style="rounded=0;whiteSpace=wrap;html=1;dashed=1;fontSize=20;" vertex="1" parent="1">
          <mxGeometry x="180" y="920" width="120" height="60" as="geometry" />
        </mxCell>
        <mxCell id="ZLK31tbMYoaBxiMOAiiz-64" value="0" style="rounded=0;whiteSpace=wrap;html=1;fontSize=20;fillColor=#d5e8d4;strokeColor=#82b366;" vertex="1" parent="1">
          <mxGeometry x="400" y="800" width="120" height="60" as="geometry" />
        </mxCell>
        <mxCell id="ZLK31tbMYoaBxiMOAiiz-65" value="1" style="rounded=0;whiteSpace=wrap;html=1;dashed=1;fontSize=20;" vertex="1" parent="1">
          <mxGeometry x="-390" y="1109" width="120" height="60" as="geometry" />
        </mxCell>
        <mxCell id="ZLK31tbMYoaBxiMOAiiz-66" value="1" style="rounded=0;whiteSpace=wrap;html=1;dashed=1;fontSize=20;" vertex="1" parent="1">
          <mxGeometry x="-170" y="1109" width="120" height="60" as="geometry" />
        </mxCell>
        <mxCell id="ZLK31tbMYoaBxiMOAiiz-67" value="1" style="rounded=0;whiteSpace=wrap;html=1;dashed=1;fontSize=20;" vertex="1" parent="1">
          <mxGeometry x="400" y="860" width="120" height="60" as="geometry" />
        </mxCell>
        <mxCell id="ZLK31tbMYoaBxiMOAiiz-68" value="0" style="rounded=0;whiteSpace=wrap;html=1;fillColor=#d5e8d4;strokeColor=#82b366;fontSize=20;" vertex="1" parent="1">
          <mxGeometry x="180" y="1040" width="120" height="60" as="geometry" />
        </mxCell>
        <mxCell id="ZLK31tbMYoaBxiMOAiiz-69" value="1" style="rounded=0;whiteSpace=wrap;html=1;fontSize=20;" vertex="1" parent="1">
          <mxGeometry x="180" y="1100" width="120" height="60" as="geometry" />
        </mxCell>
        <mxCell id="ZLK31tbMYoaBxiMOAiiz-70" value="2" style="rounded=0;whiteSpace=wrap;html=1;dashed=1;fontSize=20;" vertex="1" parent="1">
          <mxGeometry x="180" y="1160" width="120" height="60" as="geometry" />
        </mxCell>
        <mxCell id="ZLK31tbMYoaBxiMOAiiz-71" value="0" style="rounded=0;whiteSpace=wrap;html=1;fontSize=20;fillColor=#d5e8d4;strokeColor=#82b366;" vertex="1" parent="1">
          <mxGeometry x="400" y="1040" width="120" height="60" as="geometry" />
        </mxCell>
        <mxCell id="ZLK31tbMYoaBxiMOAiiz-72" value="1" style="rounded=0;whiteSpace=wrap;html=1;fontSize=20;" vertex="1" parent="1">
          <mxGeometry x="400" y="1100" width="120" height="60" as="geometry" />
        </mxCell>
        <mxCell id="ZLK31tbMYoaBxiMOAiiz-73" value="0" style="rounded=0;whiteSpace=wrap;html=1;fillColor=#d5e8d4;strokeColor=#82b366;fontSize=20;" vertex="1" parent="1">
          <mxGeometry x="180" y="1285" width="120" height="60" as="geometry" />
        </mxCell>
        <mxCell id="ZLK31tbMYoaBxiMOAiiz-74" value="1" style="rounded=0;whiteSpace=wrap;html=1;fontSize=20;fillColor=#d5e8d4;strokeColor=#82b366;" vertex="1" parent="1">
          <mxGeometry x="180" y="1345" width="120" height="60" as="geometry" />
        </mxCell>
        <mxCell id="ZLK31tbMYoaBxiMOAiiz-75" value="2" style="rounded=0;whiteSpace=wrap;html=1;dashed=1;fontSize=20;" vertex="1" parent="1">
          <mxGeometry x="180" y="1405" width="120" height="60" as="geometry" />
        </mxCell>
        <mxCell id="ZLK31tbMYoaBxiMOAiiz-78" value="HW" style="text;html=1;align=center;verticalAlign=middle;resizable=0;points=[];autosize=1;strokeColor=none;fillColor=none;fontSize=20;" vertex="1" parent="1">
          <mxGeometry x="-460" y="1109" width="60" height="40" as="geometry" />
        </mxCell>
        <mxCell id="ZLK31tbMYoaBxiMOAiiz-79" value="LEO" style="text;html=1;align=center;verticalAlign=middle;resizable=0;points=[];autosize=1;strokeColor=none;fillColor=none;fontSize=20;" vertex="1" parent="1">
          <mxGeometry x="-460" y="1140" width="60" height="40" as="geometry" />
        </mxCell>
        <mxCell id="ZLK31tbMYoaBxiMOAiiz-80" value="HW" style="text;html=1;align=center;verticalAlign=middle;resizable=0;points=[];autosize=1;strokeColor=none;fillColor=none;fontSize=20;" vertex="1" parent="1">
          <mxGeometry x="-230" y="1109" width="60" height="40" as="geometry" />
        </mxCell>
        <mxCell id="ZLK31tbMYoaBxiMOAiiz-81" value="LEO" style="text;html=1;align=center;verticalAlign=middle;resizable=0;points=[];autosize=1;strokeColor=none;fillColor=none;fontSize=20;" vertex="1" parent="1">
          <mxGeometry x="-230" y="1140" width="60" height="40" as="geometry" />
        </mxCell>
        <mxCell id="ZLK31tbMYoaBxiMOAiiz-82" value="HW" style="text;html=1;align=center;verticalAlign=middle;resizable=0;points=[];autosize=1;strokeColor=none;fillColor=none;fontSize=20;" vertex="1" parent="1">
          <mxGeometry x="120" y="870" width="60" height="40" as="geometry" />
        </mxCell>
        <mxCell id="ZLK31tbMYoaBxiMOAiiz-83" value="LEO" style="text;html=1;align=center;verticalAlign=middle;resizable=0;points=[];autosize=1;strokeColor=none;fillColor=none;fontSize=20;" vertex="1" parent="1">
          <mxGeometry x="120" y="940" width="60" height="40" as="geometry" />
        </mxCell>
        <mxCell id="ZLK31tbMYoaBxiMOAiiz-85" value="HW" style="text;html=1;align=center;verticalAlign=middle;resizable=0;points=[];autosize=1;strokeColor=none;fillColor=none;fontSize=20;" vertex="1" parent="1">
          <mxGeometry x="340" y="854.5" width="60" height="40" as="geometry" />
        </mxCell>
        <mxCell id="ZLK31tbMYoaBxiMOAiiz-86" value="LEO" style="text;html=1;align=center;verticalAlign=middle;resizable=0;points=[];autosize=1;strokeColor=none;fillColor=none;fontSize=20;" vertex="1" parent="1">
          <mxGeometry x="340" y="885.5" width="60" height="40" as="geometry" />
        </mxCell>
        <mxCell id="ZLK31tbMYoaBxiMOAiiz-87" value="HW" style="text;html=1;align=center;verticalAlign=middle;resizable=0;points=[];autosize=1;strokeColor=none;fillColor=none;fontSize=20;" vertex="1" parent="1">
          <mxGeometry x="-230" y="1109" width="60" height="40" as="geometry" />
        </mxCell>
        <mxCell id="ZLK31tbMYoaBxiMOAiiz-88" value="LEO" style="text;html=1;align=center;verticalAlign=middle;resizable=0;points=[];autosize=1;strokeColor=none;fillColor=none;fontSize=20;" vertex="1" parent="1">
          <mxGeometry x="-230" y="1140" width="60" height="40" as="geometry" />
        </mxCell>
        <mxCell id="ZLK31tbMYoaBxiMOAiiz-89" value="HW" style="text;html=1;align=center;verticalAlign=middle;resizable=0;points=[];autosize=1;strokeColor=none;fillColor=none;fontSize=20;" vertex="1" parent="1">
          <mxGeometry x="120" y="1110" width="60" height="40" as="geometry" />
        </mxCell>
        <mxCell id="ZLK31tbMYoaBxiMOAiiz-90" value="LEO" style="text;html=1;align=center;verticalAlign=middle;resizable=0;points=[];autosize=1;strokeColor=none;fillColor=none;fontSize=20;" vertex="1" parent="1">
          <mxGeometry x="120" y="1180" width="60" height="40" as="geometry" />
        </mxCell>
        <mxCell id="ZLK31tbMYoaBxiMOAiiz-91" value="HW" style="text;html=1;align=center;verticalAlign=middle;resizable=0;points=[];autosize=1;strokeColor=none;fillColor=none;fontSize=20;" vertex="1" parent="1">
          <mxGeometry x="340" y="1110" width="60" height="40" as="geometry" />
        </mxCell>
        <mxCell id="ZLK31tbMYoaBxiMOAiiz-92" value="LEO" style="text;html=1;align=center;verticalAlign=middle;resizable=0;points=[];autosize=1;strokeColor=none;fillColor=none;fontSize=20;" vertex="1" parent="1">
          <mxGeometry x="340" y="1170" width="60" height="40" as="geometry" />
        </mxCell>
        <mxCell id="ZLK31tbMYoaBxiMOAiiz-93" value="2" style="rounded=0;whiteSpace=wrap;html=1;dashed=1;fontSize=20;" vertex="1" parent="1">
          <mxGeometry x="400" y="1160" width="120" height="60" as="geometry" />
        </mxCell>
        <mxCell id="ZLK31tbMYoaBxiMOAiiz-94" value="HW" style="text;html=1;align=center;verticalAlign=middle;resizable=0;points=[];autosize=1;strokeColor=none;fillColor=none;fontSize=20;" vertex="1" parent="1">
          <mxGeometry x="120" y="1399.5" width="60" height="40" as="geometry" />
        </mxCell>
        <mxCell id="ZLK31tbMYoaBxiMOAiiz-95" value="LEO" style="text;html=1;align=center;verticalAlign=middle;resizable=0;points=[];autosize=1;strokeColor=none;fillColor=none;fontSize=20;" vertex="1" parent="1">
          <mxGeometry x="120" y="1430.5" width="60" height="40" as="geometry" />
        </mxCell>
        <mxCell id="ZLK31tbMYoaBxiMOAiiz-96" value="0" style="rounded=0;whiteSpace=wrap;html=1;fontSize=20;fillColor=#d5e8d4;strokeColor=#82b366;" vertex="1" parent="1">
          <mxGeometry x="400" y="1285" width="120" height="60" as="geometry" />
        </mxCell>
        <mxCell id="ZLK31tbMYoaBxiMOAiiz-97" value="1" style="rounded=0;whiteSpace=wrap;html=1;fontSize=20;" vertex="1" parent="1">
          <mxGeometry x="400" y="1345" width="120" height="60" as="geometry" />
        </mxCell>
        <mxCell id="ZLK31tbMYoaBxiMOAiiz-98" value="HW" style="text;html=1;align=center;verticalAlign=middle;resizable=0;points=[];autosize=1;strokeColor=none;fillColor=none;fontSize=20;" vertex="1" parent="1">
          <mxGeometry x="340" y="1355" width="60" height="40" as="geometry" />
        </mxCell>
        <mxCell id="ZLK31tbMYoaBxiMOAiiz-99" value="LEO" style="text;html=1;align=center;verticalAlign=middle;resizable=0;points=[];autosize=1;strokeColor=none;fillColor=none;fontSize=20;" vertex="1" parent="1">
          <mxGeometry x="340" y="1415" width="60" height="40" as="geometry" />
        </mxCell>
        <mxCell id="ZLK31tbMYoaBxiMOAiiz-100" value="2" style="rounded=0;whiteSpace=wrap;html=1;dashed=1;fontSize=20;" vertex="1" parent="1">
          <mxGeometry x="400" y="1405" width="120" height="60" as="geometry" />
        </mxCell>
        <mxCell id="ZLK31tbMYoaBxiMOAiiz-101" value="0" style="rounded=0;whiteSpace=wrap;html=1;fillColor=#d5e8d4;strokeColor=#82b366;fontSize=20;" vertex="1" parent="1">
          <mxGeometry x="760" y="809.5" width="120" height="60" as="geometry" />
        </mxCell>
        <mxCell id="ZLK31tbMYoaBxiMOAiiz-102" value="1" style="rounded=0;whiteSpace=wrap;html=1;fontSize=20;fillColor=#d5e8d4;strokeColor=#82b366;" vertex="1" parent="1">
          <mxGeometry x="760" y="869.5" width="120" height="60" as="geometry" />
        </mxCell>
        <mxCell id="ZLK31tbMYoaBxiMOAiiz-103" value="2" style="rounded=0;whiteSpace=wrap;html=1;dashed=1;fontSize=20;" vertex="1" parent="1">
          <mxGeometry x="760" y="929.5" width="120" height="60" as="geometry" />
        </mxCell>
        <mxCell id="ZLK31tbMYoaBxiMOAiiz-104" value="HW" style="text;html=1;align=center;verticalAlign=middle;resizable=0;points=[];autosize=1;strokeColor=none;fillColor=none;fontSize=20;" vertex="1" parent="1">
          <mxGeometry x="690" y="924" width="60" height="40" as="geometry" />
        </mxCell>
        <mxCell id="ZLK31tbMYoaBxiMOAiiz-105" value="LEO" style="text;html=1;align=center;verticalAlign=middle;resizable=0;points=[];autosize=1;strokeColor=none;fillColor=none;fontSize=20;" vertex="1" parent="1">
          <mxGeometry x="690" y="955" width="60" height="40" as="geometry" />
        </mxCell>
        <mxCell id="ZLK31tbMYoaBxiMOAiiz-106" value="0" style="rounded=0;whiteSpace=wrap;html=1;fontSize=20;fillColor=#d5e8d4;strokeColor=#82b366;" vertex="1" parent="1">
          <mxGeometry x="980" y="809.5" width="120" height="60" as="geometry" />
        </mxCell>
        <mxCell id="ZLK31tbMYoaBxiMOAiiz-107" value="1" style="rounded=0;whiteSpace=wrap;html=1;fontSize=20;" vertex="1" parent="1">
          <mxGeometry x="980" y="869.5" width="120" height="60" as="geometry" />
        </mxCell>
        <mxCell id="ZLK31tbMYoaBxiMOAiiz-108" value="HW" style="text;html=1;align=center;verticalAlign=middle;resizable=0;points=[];autosize=1;strokeColor=none;fillColor=none;fontSize=20;" vertex="1" parent="1">
          <mxGeometry x="920" y="879.5" width="60" height="40" as="geometry" />
        </mxCell>
        <mxCell id="ZLK31tbMYoaBxiMOAiiz-109" value="LEO" style="text;html=1;align=center;verticalAlign=middle;resizable=0;points=[];autosize=1;strokeColor=none;fillColor=none;fontSize=20;" vertex="1" parent="1">
          <mxGeometry x="920" y="939.5" width="60" height="40" as="geometry" />
        </mxCell>
        <mxCell id="ZLK31tbMYoaBxiMOAiiz-110" value="2" style="rounded=0;whiteSpace=wrap;html=1;dashed=1;fontSize=20;" vertex="1" parent="1">
          <mxGeometry x="980" y="929.5" width="120" height="60" as="geometry" />
        </mxCell>
        <mxCell id="ZLK31tbMYoaBxiMOAiiz-111" value="" style="ellipse;whiteSpace=wrap;html=1;strokeWidth=2;fillWeight=2;hachureGap=8;fillColor=#990000;fillStyle=dots;sketch=1;" vertex="1" parent="1">
          <mxGeometry x="700" y="779.5" width="190" height="230" as="geometry" />
        </mxCell>
        <mxCell id="ZLK31tbMYoaBxiMOAiiz-112" value="0" style="rounded=0;whiteSpace=wrap;html=1;fontSize=20;fillColor=#d5e8d4;strokeColor=#82b366;" vertex="1" parent="1">
          <mxGeometry x="980" y="1049" width="120" height="60" as="geometry" />
        </mxCell>
        <mxCell id="ZLK31tbMYoaBxiMOAiiz-113" value="1" style="rounded=0;whiteSpace=wrap;html=1;fontSize=20;dashed=1;" vertex="1" parent="1">
          <mxGeometry x="980" y="1109" width="120" height="60" as="geometry" />
        </mxCell>
        <mxCell id="ZLK31tbMYoaBxiMOAiiz-114" value="HW" style="text;html=1;align=center;verticalAlign=middle;resizable=0;points=[];autosize=1;strokeColor=none;fillColor=none;fontSize=20;" vertex="1" parent="1">
          <mxGeometry x="920" y="1119" width="60" height="40" as="geometry" />
        </mxCell>
        <mxCell id="ZLK31tbMYoaBxiMOAiiz-115" value="LEO" style="text;html=1;align=center;verticalAlign=middle;resizable=0;points=[];autosize=1;strokeColor=none;fillColor=none;fontSize=20;" vertex="1" parent="1">
          <mxGeometry x="920" y="1139" width="60" height="40" as="geometry" />
        </mxCell>
        <mxCell id="ZLK31tbMYoaBxiMOAiiz-116" value="2" style="rounded=0;whiteSpace=wrap;html=1;dashed=1;fontSize=20;" vertex="1" parent="1">
          <mxGeometry x="980" y="1169" width="120" height="60" as="geometry" />
        </mxCell>
        <mxCell id="ZLK31tbMYoaBxiMOAiiz-117" value="" style="ellipse;whiteSpace=wrap;html=1;strokeWidth=2;fillWeight=2;hachureGap=8;fillColor=#990000;fillStyle=dots;sketch=1;" vertex="1" parent="1">
          <mxGeometry x="955" y="1169" width="170" height="70" as="geometry" />
        </mxCell>
        <mxCell id="ZLK31tbMYoaBxiMOAiiz-124" value="0" style="rounded=0;whiteSpace=wrap;html=1;fontSize=20;fillColor=#d5e8d4;strokeColor=#82b366;" vertex="1" parent="1">
          <mxGeometry x="990" y="1315" width="120" height="60" as="geometry" />
        </mxCell>
        <mxCell id="ZLK31tbMYoaBxiMOAiiz-125" value="1" style="rounded=0;whiteSpace=wrap;html=1;fontSize=20;dashed=1;" vertex="1" parent="1">
          <mxGeometry x="990" y="1375" width="120" height="60" as="geometry" />
        </mxCell>
        <mxCell id="ZLK31tbMYoaBxiMOAiiz-126" value="HW" style="text;html=1;align=center;verticalAlign=middle;resizable=0;points=[];autosize=1;strokeColor=none;fillColor=none;fontSize=20;" vertex="1" parent="1">
          <mxGeometry x="930" y="1385" width="60" height="40" as="geometry" />
        </mxCell>
        <mxCell id="ZLK31tbMYoaBxiMOAiiz-127" value="LEO" style="text;html=1;align=center;verticalAlign=middle;resizable=0;points=[];autosize=1;strokeColor=none;fillColor=none;fontSize=20;" vertex="1" parent="1">
          <mxGeometry x="930" y="1405" width="60" height="40" as="geometry" />
        </mxCell>
        <mxCell id="ZLK31tbMYoaBxiMOAiiz-128" value="2" style="rounded=0;whiteSpace=wrap;html=1;dashed=1;fontSize=20;" vertex="1" parent="1">
          <mxGeometry x="990" y="1435" width="120" height="60" as="geometry" />
        </mxCell>
        <mxCell id="ZLK31tbMYoaBxiMOAiiz-129" value="" style="ellipse;whiteSpace=wrap;html=1;strokeWidth=2;fillWeight=2;hachureGap=8;fillColor=#990000;fillStyle=dots;sketch=1;" vertex="1" parent="1">
          <mxGeometry x="965" y="1435" width="170" height="70" as="geometry" />
        </mxCell>
        <mxCell id="ZLK31tbMYoaBxiMOAiiz-130" value="0" style="rounded=0;whiteSpace=wrap;html=1;fontSize=20;fillColor=#d5e8d4;strokeColor=#82b366;" vertex="1" parent="1">
          <mxGeometry x="735" y="1315" width="120" height="60" as="geometry" />
        </mxCell>
        <mxCell id="ZLK31tbMYoaBxiMOAiiz-131" value="1" style="rounded=0;whiteSpace=wrap;html=1;fontSize=20;dashed=1;" vertex="1" parent="1">
          <mxGeometry x="735" y="1375" width="120" height="60" as="geometry" />
        </mxCell>
        <mxCell id="ZLK31tbMYoaBxiMOAiiz-132" value="HW" style="text;html=1;align=center;verticalAlign=middle;resizable=0;points=[];autosize=1;strokeColor=none;fillColor=none;fontSize=20;" vertex="1" parent="1">
          <mxGeometry x="675" y="1385" width="60" height="40" as="geometry" />
        </mxCell>
        <mxCell id="ZLK31tbMYoaBxiMOAiiz-133" value="LEO" style="text;html=1;align=center;verticalAlign=middle;resizable=0;points=[];autosize=1;strokeColor=none;fillColor=none;fontSize=20;" vertex="1" parent="1">
          <mxGeometry x="675" y="1405" width="60" height="40" as="geometry" />
        </mxCell>
        <mxCell id="ZLK31tbMYoaBxiMOAiiz-134" value="2" style="rounded=0;whiteSpace=wrap;html=1;dashed=1;fontSize=20;" vertex="1" parent="1">
          <mxGeometry x="735" y="1435" width="120" height="60" as="geometry" />
        </mxCell>
        <mxCell id="ZLK31tbMYoaBxiMOAiiz-135" value="" style="ellipse;whiteSpace=wrap;html=1;strokeWidth=2;fillWeight=2;hachureGap=8;fillColor=#990000;fillStyle=dots;sketch=1;" vertex="1" parent="1">
          <mxGeometry x="710" y="1435" width="170" height="70" as="geometry" />
        </mxCell>
        <mxCell id="ZLK31tbMYoaBxiMOAiiz-137" value="1. 初始状态，左侧为 Leader，右侧为 Follower，同步状态一致" style="text;html=1;align=center;verticalAlign=middle;resizable=0;points=[];autosize=1;strokeColor=none;fillColor=none;" vertex="1" parent="1">
          <mxGeometry x="-430" y="1215.5" width="350" height="30" as="geometry" />
        </mxCell>
        <mxCell id="ZLK31tbMYoaBxiMOAiiz-141" value="2.1 Leader 收到新数据，更新 LEO" style="text;html=1;align=center;verticalAlign=middle;resizable=0;points=[];autosize=1;strokeColor=none;fillColor=none;" vertex="1" parent="1">
          <mxGeometry x="235" y="990" width="210" height="30" as="geometry" />
        </mxCell>
        <mxCell id="ZLK31tbMYoaBxiMOAiiz-142" value="2.2 Follower 拉取数据，更新 LEO" style="text;html=1;align=center;verticalAlign=middle;resizable=0;points=[];autosize=1;strokeColor=none;fillColor=none;" vertex="1" parent="1">
          <mxGeometry x="240" y="1230" width="200" height="30" as="geometry" />
        </mxCell>
        <mxCell id="ZLK31tbMYoaBxiMOAiiz-143" value="2.3 下一轮 Follwer 拉去，才会报告新的 Follower‘s LEO，才会更新 Leader’s HW" style="text;html=1;align=center;verticalAlign=middle;resizable=0;points=[];autosize=1;strokeColor=none;fillColor=none;" vertex="1" parent="1">
          <mxGeometry x="120" y="1475" width="450" height="30" as="geometry" />
        </mxCell>
        <mxCell id="ZLK31tbMYoaBxiMOAiiz-147" value="3.1 Leader 故障下线，且没有将新的 Leader‘s HW 同步给 Follower" style="text;html=1;align=center;verticalAlign=middle;resizable=0;points=[];autosize=1;strokeColor=none;fillColor=none;" vertex="1" parent="1">
          <mxGeometry x="715" y="1010" width="380" height="30" as="geometry" />
        </mxCell>
        <mxCell id="ZLK31tbMYoaBxiMOAiiz-148" value="3.2 Follower 成为新 Leader，同时 LEO 重新回到 HW，导致原来的一条消息丢失" style="text;html=1;align=center;verticalAlign=middle;resizable=0;points=[];autosize=1;strokeColor=none;fillColor=none;" vertex="1" parent="1">
          <mxGeometry x="685" y="1250" width="450" height="30" as="geometry" />
        </mxCell>
        <mxCell id="ZLK31tbMYoaBxiMOAiiz-149" value="3.3 即使原来的 Leader 重新上线也只能和新 Leader 更新，消息仍然丢失" style="text;html=1;align=center;verticalAlign=middle;resizable=0;points=[];autosize=1;strokeColor=none;fillColor=none;" vertex="1" parent="1">
          <mxGeometry x="710" y="1500" width="410" height="30" as="geometry" />
        </mxCell>
        <mxCell id="ZLK31tbMYoaBxiMOAiiz-153" value="HW 错位" style="rounded=1;whiteSpace=wrap;html=1;fillColor=#f8cecc;strokeColor=#b85450;fontSize=20;fontStyle=1" vertex="1" parent="1">
          <mxGeometry x="580" y="1570" width="120" height="60" as="geometry" />
        </mxCell>
        <mxCell id="ZLK31tbMYoaBxiMOAiiz-155" value="消息丢失" style="rounded=1;whiteSpace=wrap;html=1;fillColor=#f8cecc;strokeColor=#b85450;fontSize=20;fontStyle=1" vertex="1" parent="1">
          <mxGeometry x="1290" y="1315" width="120" height="60" as="geometry" />
        </mxCell>
      </root>
    </mxGraphModel>
  </diagram>
</mxfile>
